<?xml version="1.0" encoding="UTF-8" standalone="no"?><svg xmlns="http://www.w3.org/2000/svg" xmlns:xlink="http://www.w3.org/1999/xlink" contentScriptType="application/ecmascript" contentStyleType="text/css" height="505px" preserveAspectRatio="none" style="width:457px;height:505px;" version="1.1" viewBox="0 0 457 505" width="457px" zoomAndPan="magnify"><defs><filter height="300%" id="fibrehynkibdh" width="300%" x="-1" y="-1"><feGaussianBlur result="blurOut" stdDeviation="2.0"/><feColorMatrix in="blurOut" result="blurOut2" type="matrix" values="0 0 0 0 0 0 0 0 0 0 0 0 0 0 0 0 0 0 .4 0"/><feOffset dx="4.0" dy="4.0" in="blurOut2" result="blurOut3"/><feBlend in="SourceGraphic" in2="blurOut3" mode="normal"/></filter></defs><g><text fill="#000000" font-family="sans-serif" font-size="18" lengthAdjust="spacingAndGlyphs" textLength="276" x="91" y="29.2419">AirPlay mDNS/DNS-SD discovery</text><line style="stroke: #A80036; stroke-width: 1.0; stroke-dasharray: 5.0,5.0;" x1="57" x2="57" y1="146.6517" y2="396.0058"/><line style="stroke: #A80036; stroke-width: 1.0; stroke-dasharray: 5.0,5.0;" x1="222" x2="222" y1="146.6517" y2="396.0058"/><line style="stroke: #A80036; stroke-width: 1.0; stroke-dasharray: 5.0,5.0;" x1="395" x2="395" y1="146.6517" y2="396.0058"/><text fill="#000000" font-family="sans-serif" font-size="14" lengthAdjust="spacingAndGlyphs" textLength="71" x="18.5" y="123.4818">Apple 设备</text><text fill="#000000" font-family="sans-serif" font-size="14" lengthAdjust="spacingAndGlyphs" textLength="92" x="8" y="142.5497">192.168.6.186</text><ellipse cx="57" cy="51.5158" fill="#FEFECE" filter="url(#fibrehynkibdh)" rx="8" ry="8" style="stroke: #A80036; stroke-width: 2.0;"/><path d="M57,59.5158 L57,86.5158 M44,67.5158 L70,67.5158 M57,86.5158 L44,101.5158 M57,86.5158 L70,101.5158 " fill="none" filter="url(#fibrehynkibdh)" style="stroke: #A80036; stroke-width: 2.0;"/><text fill="#000000" font-family="sans-serif" font-size="14" lengthAdjust="spacingAndGlyphs" textLength="71" x="18.5" y="409.9718">Apple 设备</text><text fill="#000000" font-family="sans-serif" font-size="14" lengthAdjust="spacingAndGlyphs" textLength="92" x="8" y="429.0397">192.168.6.186</text><ellipse cx="57" cy="443.1417" fill="#FEFECE" filter="url(#fibrehynkibdh)" rx="8" ry="8" style="stroke: #A80036; stroke-width: 2.0;"/><path d="M57,451.1417 L57,478.1417 M44,459.1417 L70,459.1417 M57,478.1417 L44,493.1417 M57,478.1417 L70,493.1417 " fill="none" filter="url(#fibrehynkibdh)" style="stroke: #A80036; stroke-width: 2.0;"/><rect fill="#FEFECE" filter="url(#fibrehynkibdh)" height="52.1358" style="stroke: #A80036; stroke-width: 1.5;" width="126" x="157" y="89.5158"/><text fill="#000000" font-family="sans-serif" font-size="14" lengthAdjust="spacingAndGlyphs" textLength="102" x="169" y="111.4818">mDNS 组播地址</text><text fill="#000000" font-family="sans-serif" font-size="14" lengthAdjust="spacingAndGlyphs" textLength="112" x="164" y="130.5497">224.0.0.251:5353</text><rect fill="#FEFECE" filter="url(#fibrehynkibdh)" height="52.1358" style="stroke: #A80036; stroke-width: 1.5;" width="126" x="157" y="395.0058"/><text fill="#000000" font-family="sans-serif" font-size="14" lengthAdjust="spacingAndGlyphs" textLength="102" x="169" y="416.9718">mDNS 组播地址</text><text fill="#000000" font-family="sans-serif" font-size="14" lengthAdjust="spacingAndGlyphs" textLength="112" x="164" y="436.0397">224.0.0.251:5353</text><rect fill="#FEFECE" filter="url(#fibrehynkibdh)" height="52.1358" style="stroke: #A80036; stroke-width: 1.5;" width="106" x="340" y="89.5158"/><text fill="#000000" font-family="sans-serif" font-size="14" lengthAdjust="spacingAndGlyphs" textLength="76" x="355" y="111.4818">UxPlay 主机</text><text fill="#000000" font-family="sans-serif" font-size="14" lengthAdjust="spacingAndGlyphs" textLength="92" x="347" y="130.5497">192.168.6.204</text><rect fill="#FEFECE" filter="url(#fibrehynkibdh)" height="52.1358" style="stroke: #A80036; stroke-width: 1.5;" width="106" x="340" y="395.0058"/><text fill="#000000" font-family="sans-serif" font-size="14" lengthAdjust="spacingAndGlyphs" textLength="76" x="355" y="416.9718">UxPlay 主机</text><text fill="#000000" font-family="sans-serif" font-size="14" lengthAdjust="spacingAndGlyphs" textLength="92" x="347" y="436.0397">192.168.6.204</text><polygon fill="#A80036" points="210,229.4757,220,233.4757,210,237.4757,214,233.4757" style="stroke: #A80036; stroke-width: 1.0;"/><line style="stroke: #A80036; stroke-width: 1.0;" x1="57" x2="216" y1="233.4757" y2="233.4757"/><text fill="#000000" font-family="sans-serif" font-size="13" lengthAdjust="spacingAndGlyphs" textLength="61" x="64" y="174.5487">PTR query</text><text fill="#000000" font-family="sans-serif" font-size="13" lengthAdjust="spacingAndGlyphs" textLength="104" x="64" y="192.2547">_airplay._tcp.local</text><text fill="#000000" font-family="sans-serif" font-size="13" lengthAdjust="spacingAndGlyphs" textLength="92" x="64" y="209.9607">_raop._tcp.local</text><text fill="#000000" font-family="sans-serif" font-size="13" lengthAdjust="spacingAndGlyphs" textLength="78" x="64" y="227.6667">class IN + QU</text><polygon fill="#A80036" points="383,261.1818,393,265.1818,383,269.1818,387,265.1818" style="stroke: #A80036; stroke-width: 1.0;"/><line style="stroke: #A80036; stroke-width: 1.0;" x1="222" x2="389" y1="265.1818" y2="265.1818"/><text fill="#000000" font-family="sans-serif" font-size="13" lengthAdjust="spacingAndGlyphs" textLength="91" x="229" y="259.3728">局域网组播转发</text><polygon fill="#A80036" points="233,310.5938,223,314.5938,233,318.5938,229,314.5938" style="stroke: #A80036; stroke-width: 1.0;"/><line style="stroke: #A80036; stroke-width: 1.0;" x1="227" x2="394" y1="314.5938" y2="314.5938"/><text fill="#000000" font-family="sans-serif" font-size="13" lengthAdjust="spacingAndGlyphs" textLength="149" x="239" y="291.0788">PTR/SRV/TXT/A response</text><text fill="#000000" font-family="sans-serif" font-size="13" lengthAdjust="spacingAndGlyphs" textLength="88" x="239" y="308.7848">AirPlay + RAOP</text><polygon fill="#A80036" points="68,342.2998,58,346.2998,68,350.2998,64,346.2998" style="stroke: #A80036; stroke-width: 1.0;"/><line style="stroke: #A80036; stroke-width: 1.0;" x1="62" x2="221" y1="346.2998" y2="346.2998"/><text fill="#000000" font-family="sans-serif" font-size="13" lengthAdjust="spacingAndGlyphs" textLength="141" x="74" y="340.4908">Apple 设备收到服务描述</text><polygon fill="#A80036" points="383,374.0058,393,378.0058,383,382.0058,387,378.0058" style="stroke: #A80036; stroke-width: 1.0;"/><line style="stroke: #A80036; stroke-width: 1.0;" x1="57" x2="389" y1="378.0058" y2="378.0058"/><text fill="#000000" font-family="sans-serif" font-size="13" lengthAdjust="spacingAndGlyphs" textLength="164" x="64" y="372.1968">后续连接 AirPlay/RAOP 端口</text></g></svg>