<?xml version="1.0" encoding="UTF-8" standalone="no"?><svg xmlns="http://www.w3.org/2000/svg" xmlns:xlink="http://www.w3.org/1999/xlink" contentScriptType="application/ecmascript" contentStyleType="text/css" height="1029px" preserveAspectRatio="none" style="width:362px;height:1029px;" version="1.1" viewBox="0 0 362 1029" width="362px" zoomAndPan="magnify"><defs><filter height="300%" id="f1edux8tzezmo9" width="300%" x="-1" y="-1"><feGaussianBlur result="blurOut" stdDeviation="2.0"/><feColorMatrix in="blurOut" result="blurOut2" type="matrix" values="0 0 0 0 0 0 0 0 0 0 0 0 0 0 0 0 0 0 .4 0"/><feOffset dx="4.0" dy="4.0" in="blurOut2" result="blurOut3"/><feBlend in="SourceGraphic" in2="blurOut3" mode="normal"/></filter></defs><g><text fill="#000000" font-family="sans-serif" font-size="18" lengthAdjust="spacingAndGlyphs" textLength="317" x="28.5" y="19.2419">Discovery states from packet capture</text><ellipse cx="83" cy="42.5158" fill="#000000" filter="url(#f1edux8tzezmo9)" rx="10" ry="10" style="stroke: none; stroke-width: 1.0;"/><rect fill="#FEFECE" filter="url(#f1edux8tzezmo9)" height="50" rx="12.5" ry="12.5" style="stroke: #A80036; stroke-width: 1.5;" width="102" x="32" y="113.5158"/><line style="stroke: #A80036; stroke-width: 1.5;" x1="32" x2="134" y1="142.5838" y2="142.5838"/><text fill="#000000" font-family="sans-serif" font-size="14" lengthAdjust="spacingAndGlyphs" textLength="82" x="42" y="133.4818">ServerStarts</text><rect fill="#FEFECE" filter="url(#f1edux8tzezmo9)" height="50" rx="12.5" ry="12.5" style="stroke: #A80036; stroke-width: 1.5;" width="154" x="6" y="242.5158"/><line style="stroke: #A80036; stroke-width: 1.5;" x1="6" x2="160" y1="271.5838" y2="271.5838"/><text fill="#000000" font-family="sans-serif" font-size="14" lengthAdjust="spacingAndGlyphs" textLength="134" x="16" y="262.4818">ProbeAndAnnounce</text><rect fill="#FEFECE" filter="url(#f1edux8tzezmo9)" height="50" rx="12.5" ry="12.5" style="stroke: #A80036; stroke-width: 1.5;" width="126" x="20" y="371.5158"/><line style="stroke: #A80036; stroke-width: 1.5;" x1="20" x2="146" y1="400.5838" y2="400.5838"/><text fill="#000000" font-family="sans-serif" font-size="14" lengthAdjust="spacingAndGlyphs" textLength="106" x="30" y="391.4818">MulticastVisible</text><rect fill="#FEFECE" filter="url(#f1edux8tzezmo9)" height="50" rx="12.5" ry="12.5" style="stroke: #A80036; stroke-width: 1.5;" width="112" x="27" y="500.5158"/><line style="stroke: #A80036; stroke-width: 1.5;" x1="27" x2="139" y1="529.5838" y2="529.5838"/><text fill="#000000" font-family="sans-serif" font-size="14" lengthAdjust="spacingAndGlyphs" textLength="92" x="37" y="520.4818">ClientQueries</text><rect fill="#FEFECE" filter="url(#f1edux8tzezmo9)" height="50" rx="12.5" ry="12.5" style="stroke: #A80036; stroke-width: 1.5;" width="129" x="18.5" y="629.5158"/><line style="stroke: #A80036; stroke-width: 1.5;" x1="18.5" x2="147.5" y1="658.5838" y2="658.5838"/><text fill="#000000" font-family="sans-serif" font-size="14" lengthAdjust="spacingAndGlyphs" textLength="109" x="28.5" y="649.4818">AnswerMatched</text><rect fill="#FEFECE" filter="url(#f1edux8tzezmo9)" height="50" rx="12.5" ry="12.5" style="stroke: #A80036; stroke-width: 1.5;" width="107" x="29.5" y="758.5158"/><line style="stroke: #A80036; stroke-width: 1.5;" x1="29.5" x2="136.5" y1="787.5838" y2="787.5838"/><text fill="#000000" font-family="sans-serif" font-size="14" lengthAdjust="spacingAndGlyphs" textLength="87" x="39.5" y="778.4818">ClientCaches</text><rect fill="#FEFECE" filter="url(#f1edux8tzezmo9)" height="50" rx="12.5" ry="12.5" style="stroke: #A80036; stroke-width: 1.5;" width="129" x="18.5" y="887.5158"/><line style="stroke: #A80036; stroke-width: 1.5;" x1="18.5" x2="147.5" y1="916.5838" y2="916.5838"/><text fill="#000000" font-family="sans-serif" font-size="14" lengthAdjust="spacingAndGlyphs" textLength="109" x="28.5" y="907.4818">ConnectProtocol</text><ellipse cx="83" cy="1008.5158" fill="none" filter="url(#f1edux8tzezmo9)" rx="10" ry="10" style="stroke: #000000; stroke-width: 1.0;"/><ellipse cx="83.5" cy="1009.0158" fill="#000000" rx="6" ry="6" style="stroke: none; stroke-width: 1.0;"/><path d="M83,52.5258 C83,65.2158 83,88.9258 83,108.0858 " fill="none" id="*start-&gt;ServerStarts" style="stroke: #A80036; stroke-width: 1.0;"/><polygon fill="#A80036" points="83,113.3558,87,104.3558,83,108.3558,79,104.3558,83,113.3558" style="stroke: #A80036; stroke-width: 1.0;"/><path d="M83,163.7058 C83,184.6258 83,214.9258 83,237.2258 " fill="none" id="ServerStarts-&gt;ProbeAndAnnounce" style="stroke: #A80036; stroke-width: 1.0;"/><polygon fill="#A80036" points="83,242.4158,87,233.4158,83,237.4158,79,233.4158,83,242.4158" style="stroke: #A80036; stroke-width: 1.0;"/><text fill="#000000" font-family="sans-serif" font-size="13" lengthAdjust="spacingAndGlyphs" textLength="79" x="84" y="208.4129">UxPlay starts</text><path d="M83,292.7058 C83,313.6258 83,343.9258 83,366.2258 " fill="none" id="ProbeAndAnnounce-&gt;MulticastVisible" style="stroke: #A80036; stroke-width: 1.0;"/><polygon fill="#A80036" points="83,371.4158,87,362.4158,83,366.4158,79,362.4158,83,371.4158" style="stroke: #A80036; stroke-width: 1.0;"/><text fill="#000000" font-family="sans-serif" font-size="13" lengthAdjust="spacingAndGlyphs" textLength="162" x="84" y="337.4129">PTR/SRV/TXT/A announced</text><path d="M83,421.7058 C83,442.6258 83,472.9258 83,495.2258 " fill="none" id="MulticastVisible-&gt;ClientQueries" style="stroke: #A80036; stroke-width: 1.0;"/><polygon fill="#A80036" points="83,500.4158,87,491.4158,83,495.4158,79,491.4158,83,500.4158" style="stroke: #A80036; stroke-width: 1.0;"/><text fill="#000000" font-family="sans-serif" font-size="13" lengthAdjust="spacingAndGlyphs" textLength="179" x="84" y="466.4129">Apple opens AirPlay device list</text><path d="M83,550.7058 C83,571.6258 83,601.9258 83,624.2258 " fill="none" id="ClientQueries-&gt;AnswerMatched" style="stroke: #A80036; stroke-width: 1.0;"/><polygon fill="#A80036" points="83,629.4158,87,620.4158,83,624.4158,79,620.4158,83,629.4158" style="stroke: #A80036; stroke-width: 1.0;"/><text fill="#000000" font-family="sans-serif" font-size="13" lengthAdjust="spacingAndGlyphs" textLength="167" x="84" y="595.4129">_airplay/_raop PTR matched</text><path d="M83,679.7058 C83,700.6258 83,730.9258 83,753.2258 " fill="none" id="AnswerMatched-&gt;ClientCaches" style="stroke: #A80036; stroke-width: 1.0;"/><polygon fill="#A80036" points="83,758.4158,87,749.4158,83,753.4158,79,749.4158,83,758.4158" style="stroke: #A80036; stroke-width: 1.0;"/><text fill="#000000" font-family="sans-serif" font-size="13" lengthAdjust="spacingAndGlyphs" textLength="141" x="84" y="724.4129">client caches TXT/SRV/A</text><path d="M83,808.7058 C83,829.6258 83,859.9258 83,882.2258 " fill="none" id="ClientCaches-&gt;ConnectProtocol" style="stroke: #A80036; stroke-width: 1.0;"/><polygon fill="#A80036" points="83,887.4158,87,878.4158,83,882.4158,79,878.4158,83,887.4158" style="stroke: #A80036; stroke-width: 1.0;"/><text fill="#000000" font-family="sans-serif" font-size="13" lengthAdjust="spacingAndGlyphs" textLength="201" x="84" y="853.4129">client connects AirPlay/RAOP port</text><path d="M83,937.7258 C83,955.3558 83,978.6458 83,993.3558 " fill="none" id="ConnectProtocol-&gt;*end" style="stroke: #A80036; stroke-width: 1.0;"/><polygon fill="#A80036" points="83,998.3558,87,989.3558,83,993.3558,79,989.3558,83,998.3558" style="stroke: #A80036; stroke-width: 1.0;"/><path d="M139.43,513.5158 C158.6,513.4558 174,517.4558 174,525.5158 C174,532.8258 161.35,536.7958 144.71,537.4258 " fill="none" id="ClientQueries-&gt;ClientQueries" style="stroke: #A80036; stroke-width: 1.0;"/><polygon fill="#A80036" points="139.43,537.5158,148.4972,541.361,144.4293,537.4301,148.3601,533.3622,139.43,537.5158" style="stroke: #A80036; stroke-width: 1.0;"/><text fill="#000000" font-family="sans-serif" font-size="13" lengthAdjust="spacingAndGlyphs" textLength="133" x="180" y="530.9129">repeated mDNS query</text><path d="M160.21,255.6458 C180.06,256.4058 195,260.3558 195,267.5158 C195,274.0558 182.52,277.9258 165.21,279.1158 " fill="none" id="ProbeAndAnnounce-&gt;ProbeAndAnnounce" style="stroke: #A80036; stroke-width: 1.0;"/><polygon fill="#A80036" points="160.21,279.3858,169.4136,282.8921,165.2026,279.1148,168.9799,274.9039,160.21,279.3858" style="stroke: #A80036; stroke-width: 1.0;"/><text fill="#000000" font-family="sans-serif" font-size="13" lengthAdjust="spacingAndGlyphs" textLength="149" x="201" y="272.9129">repeated announcement</text></g></svg>