<?xml version="1.0" encoding="UTF-8" standalone="no"?><svg xmlns="http://www.w3.org/2000/svg" xmlns:xlink="http://www.w3.org/1999/xlink" contentScriptType="application/ecmascript" contentStyleType="text/css" height="554px" preserveAspectRatio="none" style="width:742px;height:554px;" version="1.1" viewBox="0 0 742 554" width="742px" zoomAndPan="magnify"><defs><filter height="300%" id="f1ocuiz3wrfzjf" width="300%" x="-1" y="-1"><feGaussianBlur result="blurOut" stdDeviation="2.0"/><feColorMatrix in="blurOut" result="blurOut2" type="matrix" values="0 0 0 0 0 0 0 0 0 0 0 0 0 0 0 0 0 0 .4 0"/><feOffset dx="4.0" dy="4.0" in="blurOut2" result="blurOut3"/><feBlend in="SourceGraphic" in2="blurOut3" mode="normal"/></filter></defs><g><text fill="#000000" font-family="sans-serif" font-size="18" lengthAdjust="spacingAndGlyphs" textLength="355" x="199.5" y="19.2419">DNS-SD records used by AirPlay discovery</text><rect fill="#FEFECE" filter="url(#f1ocuiz3wrfzjf)" height="39.0679" style="stroke: #000000; stroke-width: 1.5;" width="208" x="273" y="32.5158"/><text fill="#000000" font-family="sans-serif" font-size="14" lengthAdjust="spacingAndGlyphs" textLength="188" x="283" y="57.4818">_services._dns-sd._udp.local</text><rect fill="#FEFECE" filter="url(#f1ocuiz3wrfzjf)" height="39.0679" style="stroke: #000000; stroke-width: 1.5;" width="138" x="226" y="150.5158"/><text fill="#000000" font-family="sans-serif" font-size="14" lengthAdjust="spacingAndGlyphs" textLength="118" x="236" y="175.4818">_airplay._tcp.local</text><rect fill="#FEFECE" filter="url(#f1ocuiz3wrfzjf)" height="39.0679" style="stroke: #000000; stroke-width: 1.5;" width="123" x="425.5" y="150.5158"/><text fill="#000000" font-family="sans-serif" font-size="14" lengthAdjust="spacingAndGlyphs" textLength="103" x="435.5" y="175.4818">_raop._tcp.local</text><rect fill="#FEFECE" filter="url(#f1ocuiz3wrfzjf)" height="39.0679" style="stroke: #000000; stroke-width: 1.5;" width="266" x="6" y="268.5158"/><text fill="#000000" font-family="sans-serif" font-size="14" lengthAdjust="spacingAndGlyphs" textLength="246" x="16" y="293.4818">UxPlay@hostname._airplay._tcp.local</text><rect fill="#FEFECE" filter="url(#f1ocuiz3wrfzjf)" height="39.0679" style="stroke: #000000; stroke-width: 1.5;" width="308" x="359" y="268.5158"/><text fill="#000000" font-family="sans-serif" font-size="14" lengthAdjust="spacingAndGlyphs" textLength="288" x="369" y="293.4818">&lt;mac&gt;@UxPlay@hostname._raop._tcp.local</text><rect fill="#FEFECE" filter="url(#f1ocuiz3wrfzjf)" height="39.0679" style="stroke: #000000; stroke-width: 1.5;" width="122" x="265" y="386.5158"/><text fill="#000000" font-family="sans-serif" font-size="14" lengthAdjust="spacingAndGlyphs" textLength="102" x="275" y="411.4818">hostname.local</text><rect fill="#FEFECE" filter="url(#f1ocuiz3wrfzjf)" height="39.0679" style="stroke: #000000; stroke-width: 1.5;" width="94" x="279" y="504.5158"/><text fill="#000000" font-family="sans-serif" font-size="14" lengthAdjust="spacingAndGlyphs" textLength="74" x="289" y="529.4818">192.168.x.x</text><path d="M363.83,71.6558 C349.48,91.9458 326.53,124.4158 311.12,146.2158 " fill="none" id="Services-&gt;AirPlayType" style="stroke: #A80036; stroke-width: 1.0;"/><polygon fill="#A80036" points="308.14,150.4258,316.5994,145.3822,311.0245,146.3418,310.0649,140.7669,308.14,150.4258" style="stroke: #A80036; stroke-width: 1.0;"/><text fill="#000000" font-family="sans-serif" font-size="13" lengthAdjust="spacingAndGlyphs" textLength="23" x="342" y="116.4129">PTR</text><path d="M394.67,71.6558 C414.08,92.1158 445.22,124.9558 465.89,146.7558 " fill="none" id="Services-&gt;RaopType" style="stroke: #A80036; stroke-width: 1.0;"/><polygon fill="#A80036" points="469.37,150.4258,466.0963,141.137,465.936,146.7916,460.2815,146.6313,469.37,150.4258" style="stroke: #A80036; stroke-width: 1.0;"/><text fill="#000000" font-family="sans-serif" font-size="13" lengthAdjust="spacingAndGlyphs" textLength="23" x="439" y="116.4129">PTR</text><path d="M269.94,189.6558 C242.19,210.2858 197.52,243.4958 168.21,265.2958 " fill="none" id="AirPlayType-&gt;AirPlayInst" style="stroke: #A80036; stroke-width: 1.0;"/><polygon fill="#A80036" points="164,268.4258,173.6087,266.2642,168.012,265.4419,168.8343,259.8451,164,268.4258" style="stroke: #A80036; stroke-width: 1.0;"/><text fill="#000000" font-family="sans-serif" font-size="13" lengthAdjust="spacingAndGlyphs" textLength="23" x="228" y="234.4129">PTR</text><path d="M491.18,189.6558 C495.67,209.6958 502.82,241.6058 507.7,263.3958 " fill="none" id="RaopType-&gt;RaopInst" style="stroke: #A80036; stroke-width: 1.0;"/><polygon fill="#A80036" points="508.83,268.4258,510.7824,258.7724,507.7453,263.5449,502.9729,260.5079,508.83,268.4258" style="stroke: #A80036; stroke-width: 1.0;"/><text fill="#000000" font-family="sans-serif" font-size="13" lengthAdjust="spacingAndGlyphs" textLength="23" x="502" y="234.4129">PTR</text><path d="M169.04,307.6558 C202.44,328.3658 256.29,361.7758 291.42,383.5658 " fill="none" id="AirPlayInst-&gt;Host" style="stroke: #A80036; stroke-width: 1.0;"/><polygon fill="#A80036" points="296.03,386.4258,290.4859,378.2857,291.7796,383.7926,286.2727,385.0863,296.03,386.4258" style="stroke: #A80036; stroke-width: 1.0;"/><text fill="#000000" font-family="sans-serif" font-size="13" lengthAdjust="spacingAndGlyphs" textLength="62" x="245" y="352.4129">SRV + port</text><path d="M482.96,307.6558 C449.56,328.3658 395.71,361.7758 360.58,383.5658 " fill="none" id="RaopInst-&gt;Host" style="stroke: #A80036; stroke-width: 1.0;"/><polygon fill="#A80036" points="355.97,386.4258,365.7273,385.0863,360.2204,383.7926,361.5141,378.2857,355.97,386.4258" style="stroke: #A80036; stroke-width: 1.0;"/><text fill="#000000" font-family="sans-serif" font-size="13" lengthAdjust="spacingAndGlyphs" textLength="62" x="432" y="352.4129">SRV + port</text><path d="M272.09,278.0458 C292.85,279.5358 307,282.8658 307,288.0158 C307,292.7258 295.18,295.9058 277.29,297.5558 " fill="none" id="AirPlayInst-&gt;AirPlayInst" style="stroke: #A80036; stroke-width: 1.0;"/><polygon fill="#A80036" points="272.09,297.9858,281.3911,301.2246,277.0727,297.5706,280.7267,293.2523,272.09,297.9858" style="stroke: #A80036; stroke-width: 1.0;"/><text fill="#000000" font-family="sans-serif" font-size="13" lengthAdjust="spacingAndGlyphs" textLength="22" x="313" y="293.4129">TXT</text><path d="M667.25,278.3658 C688.11,279.9858 702,283.2058 702,288.0158 C702,292.4158 690.39,295.4858 672.47,297.2158 " fill="none" id="RaopInst-&gt;RaopInst" style="stroke: #A80036; stroke-width: 1.0;"/><polygon fill="#A80036" points="667.25,297.6658,676.5595,300.8804,672.2316,297.2376,675.8744,292.9097,667.25,297.6658" style="stroke: #A80036; stroke-width: 1.0;"/><text fill="#000000" font-family="sans-serif" font-size="13" lengthAdjust="spacingAndGlyphs" textLength="22" x="708" y="293.4129">TXT</text><path d="M326,425.6558 C326,445.6958 326,477.6058 326,499.3958 " fill="none" id="Host-&gt;IPv4" style="stroke: #A80036; stroke-width: 1.0;"/><polygon fill="#A80036" points="326,504.4258,330,495.4258,326,499.4258,322,495.4258,326,504.4258" style="stroke: #A80036; stroke-width: 1.0;"/><text fill="#000000" font-family="sans-serif" font-size="13" lengthAdjust="spacingAndGlyphs" textLength="8" x="327" y="470.4129">A</text></g></svg>