<?xml version="1.0" encoding="UTF-8" standalone="no"?><svg xmlns="http://www.w3.org/2000/svg" xmlns:xlink="http://www.w3.org/1999/xlink" contentScriptType="application/ecmascript" contentStyleType="text/css" height="487px" preserveAspectRatio="none" style="width:479px;height:487px;" version="1.1" viewBox="0 0 479 487" width="479px" zoomAndPan="magnify"><defs><filter height="300%" id="f41ezxlgpoapa" width="300%" x="-1" y="-1"><feGaussianBlur result="blurOut" stdDeviation="2.0"/><feColorMatrix in="blurOut" result="blurOut2" type="matrix" values="0 0 0 0 0 0 0 0 0 0 0 0 0 0 0 0 0 0 .4 0"/><feOffset dx="4.0" dy="4.0" in="blurOut2" result="blurOut3"/><feBlend in="SourceGraphic" in2="blurOut3" mode="normal"/></filter></defs><g><text fill="#000000" font-family="sans-serif" font-size="18" lengthAdjust="spacingAndGlyphs" textLength="465" x="2" y="19.2419">Old external DNS-SD dependency vs built-in responder</text><rect fill="#FFFFFF" filter="url(#f41ezxlgpoapa)" height="428" style="stroke: #000000; stroke-width: 1.5;" width="214" x="32.5" y="48.5158"/><text fill="#000000" font-family="sans-serif" font-size="14" font-weight="bold" lengthAdjust="spacingAndGlyphs" textLength="74" x="102.5" y="65.4818">Old design</text><rect fill="#FFFFFF" filter="url(#f41ezxlgpoapa)" height="428" style="stroke: #000000; stroke-width: 1.5;" width="154" x="270.5" y="48.5158"/><text fill="#000000" font-family="sans-serif" font-size="14" font-weight="bold" lengthAdjust="spacingAndGlyphs" textLength="81" x="307" y="65.4818">New design</text><rect fill="#FEFECE" filter="url(#f41ezxlgpoapa)" height="39.0679" style="stroke: #A80036; stroke-width: 1.5;" width="64" x="107.5" y="86.5158"/><rect fill="#FEFECE" height="5" style="stroke: #A80036; stroke-width: 1.5;" width="10" x="102.5" y="91.5158"/><rect fill="#FEFECE" height="5" style="stroke: #A80036; stroke-width: 1.5;" width="10" x="102.5" y="115.5838"/><text fill="#000000" font-family="sans-serif" font-size="14" lengthAdjust="spacingAndGlyphs" textLength="44" x="117.5" y="111.4818">UxPlay</text><rect fill="#FEFECE" filter="url(#f41ezxlgpoapa)" height="39.0679" style="stroke: #A80036; stroke-width: 1.5;" width="110" x="84.5" y="195.0158"/><rect fill="#FEFECE" height="5" style="stroke: #A80036; stroke-width: 1.5;" width="10" x="79.5" y="200.0158"/><rect fill="#FEFECE" height="5" style="stroke: #A80036; stroke-width: 1.5;" width="10" x="79.5" y="224.0838"/><text fill="#000000" font-family="sans-serif" font-size="14" lengthAdjust="spacingAndGlyphs" textLength="90" x="94.5" y="219.9818">libdns_sd API</text><rect fill="#FEFECE" filter="url(#f41ezxlgpoapa)" height="39.0679" style="stroke: #A80036; stroke-width: 1.5;" width="182" x="48.5" y="313.0158"/><rect fill="#FEFECE" height="5" style="stroke: #A80036; stroke-width: 1.5;" width="10" x="43.5" y="318.0158"/><rect fill="#FEFECE" height="5" style="stroke: #A80036; stroke-width: 1.5;" width="10" x="43.5" y="342.0838"/><text fill="#000000" font-family="sans-serif" font-size="14" lengthAdjust="spacingAndGlyphs" textLength="162" x="58.5" y="337.9818">Avahi daemon / Bonjour</text><rect fill="#FEFECE" filter="url(#f41ezxlgpoapa)" height="39.0679" style="stroke: #A80036; stroke-width: 1.5;" width="84" x="97.5" y="421.5158"/><rect fill="#FEFECE" height="5" style="stroke: #A80036; stroke-width: 1.5;" width="10" x="92.5" y="426.5158"/><rect fill="#FEFECE" height="5" style="stroke: #A80036; stroke-width: 1.5;" width="10" x="92.5" y="450.5838"/><text fill="#000000" font-family="sans-serif" font-size="14" lengthAdjust="spacingAndGlyphs" textLength="64" x="107.5" y="446.4818">UDP 5353</text><rect fill="#FEFECE" filter="url(#f41ezxlgpoapa)" height="39.0679" style="stroke: #A80036; stroke-width: 1.5;" width="64" x="315.5" y="86.5158"/><rect fill="#FEFECE" height="5" style="stroke: #A80036; stroke-width: 1.5;" width="10" x="310.5" y="91.5158"/><rect fill="#FEFECE" height="5" style="stroke: #A80036; stroke-width: 1.5;" width="10" x="310.5" y="115.5838"/><text fill="#000000" font-family="sans-serif" font-size="14" lengthAdjust="spacingAndGlyphs" textLength="44" x="325.5" y="111.4818">UxPlay</text><rect fill="#FEFECE" filter="url(#f41ezxlgpoapa)" height="58.1358" style="stroke: #A80036; stroke-width: 1.5;" width="101" x="297" y="185.5158"/><rect fill="#FEFECE" height="5" style="stroke: #A80036; stroke-width: 1.5;" width="10" x="292" y="190.5158"/><rect fill="#FEFECE" height="5" style="stroke: #A80036; stroke-width: 1.5;" width="10" x="292" y="233.6517"/><text fill="#000000" font-family="sans-serif" font-size="14" lengthAdjust="spacingAndGlyphs" textLength="52" x="307" y="210.4818">dnssd.c</text><text fill="#000000" font-family="sans-serif" font-size="14" lengthAdjust="spacingAndGlyphs" textLength="81" x="307" y="229.5497">service data</text><rect fill="#FEFECE" filter="url(#f41ezxlgpoapa)" height="58.1358" style="stroke: #A80036; stroke-width: 1.5;" width="122" x="286.5" y="303.5158"/><rect fill="#FEFECE" height="5" style="stroke: #A80036; stroke-width: 1.5;" width="10" x="281.5" y="308.5158"/><rect fill="#FEFECE" height="5" style="stroke: #A80036; stroke-width: 1.5;" width="10" x="281.5" y="351.6517"/><text fill="#000000" font-family="sans-serif" font-size="14" lengthAdjust="spacingAndGlyphs" textLength="58" x="296.5" y="328.4818">mdnsd.c</text><text fill="#000000" font-family="sans-serif" font-size="14" lengthAdjust="spacingAndGlyphs" textLength="102" x="296.5" y="347.5497">packet + socket</text><rect fill="#FEFECE" filter="url(#f41ezxlgpoapa)" height="39.0679" style="stroke: #A80036; stroke-width: 1.5;" width="84" x="305.5" y="421.5158"/><rect fill="#FEFECE" height="5" style="stroke: #A80036; stroke-width: 1.5;" width="10" x="300.5" y="426.5158"/><rect fill="#FEFECE" height="5" style="stroke: #A80036; stroke-width: 1.5;" width="10" x="300.5" y="450.5838"/><text fill="#000000" font-family="sans-serif" font-size="14" lengthAdjust="spacingAndGlyphs" textLength="64" x="315.5" y="446.4818">UDP 5353</text><path d="M139.5,125.5658 C139.5,143.3258 139.5,170.2058 139.5,189.5658 " fill="none" id="OldUx-&gt;Libdns" style="stroke: #A80036; stroke-width: 1.0;"/><polygon fill="#A80036" points="139.5,194.8158,143.5,185.8158,139.5,189.8158,135.5,185.8158,139.5,194.8158" style="stroke: #A80036; stroke-width: 1.0;"/><path d="M139.5,234.1558 C139.5,254.1958 139.5,286.1058 139.5,307.8958 " fill="none" id="Libdns-&gt;Daemon" style="stroke: #A80036; stroke-width: 1.0;"/><polygon fill="#A80036" points="139.5,312.9258,143.5,303.9258,139.5,307.9258,135.5,303.9258,139.5,312.9258" style="stroke: #A80036; stroke-width: 1.0;"/><path d="M139.5,352.0658 C139.5,369.8258 139.5,396.7058 139.5,416.0658 " fill="none" id="Daemon-&gt;OldUdp" style="stroke: #A80036; stroke-width: 1.0;"/><polygon fill="#A80036" points="139.5,421.3158,143.5,412.3158,139.5,416.3158,135.5,412.3158,139.5,421.3158" style="stroke: #A80036; stroke-width: 1.0;"/><path d="M347.5,125.5658 C347.5,140.4758 347.5,161.8058 347.5,179.7258 " fill="none" id="NewUx-&gt;NewDnssd" style="stroke: #A80036; stroke-width: 1.0;"/><polygon fill="#A80036" points="347.5,185.1658,351.5,176.1658,347.5,180.1658,343.5,176.1658,347.5,185.1658" style="stroke: #A80036; stroke-width: 1.0;"/><path d="M347.5,243.5958 C347.5,260.0058 347.5,280.8058 347.5,298.0558 " fill="none" id="NewDnssd-&gt;NewMdnsd" style="stroke: #A80036; stroke-width: 1.0;"/><polygon fill="#A80036" points="347.5,303.2958,351.5,294.2958,347.5,298.2958,343.5,294.2958,347.5,303.2958" style="stroke: #A80036; stroke-width: 1.0;"/><path d="M347.5,361.7758 C347.5,378.7158 347.5,400.0258 347.5,416.1258 " fill="none" id="NewMdnsd-&gt;NewUdp" style="stroke: #A80036; stroke-width: 1.0;"/><polygon fill="#A80036" points="347.5,421.3658,351.5,412.3658,347.5,416.3658,343.5,412.3658,347.5,421.3658" style="stroke: #A80036; stroke-width: 1.0;"/></g></svg>