<?xml version="1.0" encoding="UTF-8" standalone="no"?><svg xmlns="http://www.w3.org/2000/svg" xmlns:xlink="http://www.w3.org/1999/xlink" contentScriptType="application/ecmascript" contentStyleType="text/css" height="1617px" preserveAspectRatio="none" style="width:263px;height:1617px;" version="1.1" viewBox="0 0 263 1617" width="263px" zoomAndPan="magnify"><defs><filter height="300%" id="f7enbadspe1vu" width="300%" x="-1" y="-1"><feGaussianBlur result="blurOut" stdDeviation="2.0"/><feColorMatrix in="blurOut" result="blurOut2" type="matrix" values="0 0 0 0 0 0 0 0 0 0 0 0 0 0 0 0 0 0 .4 0"/><feOffset dx="4.0" dy="4.0" in="blurOut2" result="blurOut3"/><feBlend in="SourceGraphic" in2="blurOut3" mode="normal"/></filter></defs><g><text fill="#000000" font-family="sans-serif" font-size="18" lengthAdjust="spacingAndGlyphs" textLength="113" x="74" y="29.2419">Runtime flow</text><ellipse cx="117" cy="44.5158" fill="#000000" filter="url(#f7enbadspe1vu)" rx="10" ry="10" style="stroke: none; stroke-width: 1.0;"/><rect fill="#FEFECE" filter="url(#f7enbadspe1vu)" height="36.3441" rx="12.5" ry="12.5" style="stroke: #A80036; stroke-width: 1.5;" width="214" x="10" y="74.5158"/><text fill="#000000" font-family="sans-serif" font-size="12" lengthAdjust="spacingAndGlyphs" textLength="194" x="20" y="97.3439">uxplay.cpp 初始化设备名和硬件地址</text><rect fill="#FEFECE" filter="url(#f7enbadspe1vu)" height="36.3441" rx="12.5" ry="12.5" style="stroke: #A80036; stroke-width: 1.5;" width="83" x="75.5" y="130.86"/><text fill="#000000" font-family="sans-serif" font-size="12" lengthAdjust="spacingAndGlyphs" textLength="63" x="85.5" y="153.6881">dnssd_init()</text><rect fill="#FEFECE" filter="url(#f7enbadspe1vu)" height="36.3441" rx="12.5" ry="12.5" style="stroke: #A80036; stroke-width: 1.5;" width="132" x="51" y="187.2041"/><text fill="#000000" font-family="sans-serif" font-size="12" lengthAdjust="spacingAndGlyphs" textLength="112" x="61" y="210.0322">生成 hostname.local</text><rect fill="#FEFECE" filter="url(#f7enbadspe1vu)" height="36.3441" rx="12.5" ry="12.5" style="stroke: #A80036; stroke-width: 1.5;" width="160" x="37" y="243.5482"/><text fill="#000000" font-family="sans-serif" font-size="12" lengthAdjust="spacingAndGlyphs" textLength="140" x="47" y="266.3763">生成 AirPlay/RAOP 实例名</text><rect fill="#FEFECE" filter="url(#f7enbadspe1vu)" height="36.3441" rx="12.5" ry="12.5" style="stroke: #A80036; stroke-width: 1.5;" width="102" x="66" y="349.3832"/><text fill="#000000" font-family="sans-serif" font-size="12" lengthAdjust="spacingAndGlyphs" textLength="82" x="76" y="372.2113">构造 RAOP TXT</text><rect fill="#FEFECE" filter="url(#f7enbadspe1vu)" height="36.3441" rx="12.5" ry="12.5" style="stroke: #A80036; stroke-width: 1.5;" width="139" x="47.5" y="405.7274"/><text fill="#000000" font-family="sans-serif" font-size="12" lengthAdjust="spacingAndGlyphs" textLength="119" x="57.5" y="428.5555">mdnsd_set_services()</text><rect fill="#FEFECE" filter="url(#f7enbadspe1vu)" height="36.3441" rx="12.5" ry="12.5" style="stroke: #A80036; stroke-width: 1.5;" width="97" x="68.5" y="477.0715"/><text fill="#000000" font-family="sans-serif" font-size="12" lengthAdjust="spacingAndGlyphs" textLength="77" x="78.5" y="499.8996">mdnsd_start()</text><rect fill="#FEFECE" filter="url(#f7enbadspe1vu)" height="36.3441" rx="12.5" ry="12.5" style="stroke: #A80036; stroke-width: 1.5;" width="136" x="49" y="533.4156"/><text fill="#000000" font-family="sans-serif" font-size="12" lengthAdjust="spacingAndGlyphs" textLength="116" x="59" y="556.2437">发送 RAOP announce</text><polygon fill="#FEFECE" filter="url(#f7enbadspe1vu)" points="87,299.8923,147,299.8923,159,311.8923,147,323.8923,87,323.8923,75,311.8923,87,299.8923" style="stroke: #A80036; stroke-width: 1.5;"/><text fill="#000000" font-family="sans-serif" font-size="11" lengthAdjust="spacingAndGlyphs" textLength="17" x="121" y="335.6512">yes</text><text fill="#000000" font-family="sans-serif" font-size="11" lengthAdjust="spacingAndGlyphs" textLength="60" x="87" y="316.1603">注册 RAOP?</text><polygon fill="#FEFECE" filter="url(#f7enbadspe1vu)" points="117,589.7597,129,601.7597,117,613.7597,105,601.7597,117,589.7597" style="stroke: #A80036; stroke-width: 1.5;"/><rect fill="#FEFECE" filter="url(#f7enbadspe1vu)" height="36.3441" rx="12.5" ry="12.5" style="stroke: #A80036; stroke-width: 1.5;" width="110" x="62" y="683.2506"/><text fill="#000000" font-family="sans-serif" font-size="12" lengthAdjust="spacingAndGlyphs" textLength="90" x="72" y="706.0787">构造 AirPlay TXT</text><rect fill="#FEFECE" filter="url(#f7enbadspe1vu)" height="36.3441" rx="12.5" ry="12.5" style="stroke: #A80036; stroke-width: 1.5;" width="139" x="47.5" y="739.5948"/><text fill="#000000" font-family="sans-serif" font-size="12" lengthAdjust="spacingAndGlyphs" textLength="119" x="57.5" y="762.4229">mdnsd_set_services()</text><rect fill="#FEFECE" filter="url(#f7enbadspe1vu)" height="36.3441" rx="12.5" ry="12.5" style="stroke: #A80036; stroke-width: 1.5;" width="97" x="68.5" y="810.9389"/><text fill="#000000" font-family="sans-serif" font-size="12" lengthAdjust="spacingAndGlyphs" textLength="77" x="78.5" y="833.767">mdnsd_start()</text><rect fill="#FEFECE" filter="url(#f7enbadspe1vu)" height="36.3441" rx="12.5" ry="12.5" style="stroke: #A80036; stroke-width: 1.5;" width="144" x="45" y="867.283"/><text fill="#000000" font-family="sans-serif" font-size="12" lengthAdjust="spacingAndGlyphs" textLength="124" x="55" y="890.1111">发送 AirPlay announce</text><polygon fill="#FEFECE" filter="url(#f7enbadspe1vu)" points="83.5,633.7597,150.5,633.7597,162.5,645.7597,150.5,657.7597,83.5,657.7597,71.5,645.7597,83.5,633.7597" style="stroke: #A80036; stroke-width: 1.5;"/><text fill="#000000" font-family="sans-serif" font-size="11" lengthAdjust="spacingAndGlyphs" textLength="17" x="121" y="669.5186">yes</text><text fill="#000000" font-family="sans-serif" font-size="11" lengthAdjust="spacingAndGlyphs" textLength="67" x="83.5" y="650.0277">注册 AirPlay?</text><polygon fill="#FEFECE" filter="url(#f7enbadspe1vu)" points="117,923.6271,129,935.6271,117,947.6271,105,935.6271,117,923.6271" style="stroke: #A80036; stroke-width: 1.5;"/><rect fill="#FEFECE" filter="url(#f7enbadspe1vu)" height="36.3441" rx="12.5" ry="12.5" style="stroke: #A80036; stroke-width: 1.5;" width="130" x="52" y="1011.6271"/><text fill="#000000" font-family="sans-serif" font-size="12" lengthAdjust="spacingAndGlyphs" textLength="110" x="62" y="1034.4552">recvfrom UDP 5353</text><rect fill="#FEFECE" filter="url(#f7enbadspe1vu)" height="36.3441" rx="12.5" ry="12.5" style="stroke: #A80036; stroke-width: 1.5;" width="187" x="23.5" y="1067.9712"/><text fill="#000000" font-family="sans-serif" font-size="12" lengthAdjust="spacingAndGlyphs" textLength="167" x="33.5" y="1090.7993">解析 DNS header 和 questions</text><rect fill="#FEFECE" filter="url(#f7enbadspe1vu)" height="36.3441" rx="12.5" ry="12.5" style="stroke: #A80036; stroke-width: 1.5;" width="116" x="59" y="1173.8063"/><text fill="#000000" font-family="sans-serif" font-size="12" lengthAdjust="spacingAndGlyphs" textLength="96" x="69" y="1196.6344">按服务构造响应包</text><rect fill="#FEFECE" filter="url(#f7enbadspe1vu)" height="36.3441" rx="12.5" ry="12.5" style="stroke: #A80036; stroke-width: 1.5;" width="80" x="77" y="1230.1504"/><text fill="#000000" font-family="sans-serif" font-size="12" lengthAdjust="spacingAndGlyphs" textLength="60" x="87" y="1252.9785">发组播响应</text><rect fill="#FEFECE" filter="url(#f7enbadspe1vu)" height="36.3441" rx="12.5" ry="12.5" style="stroke: #A80036; stroke-width: 1.5;" width="128" x="53" y="1339.6666"/><text fill="#000000" font-family="sans-serif" font-size="12" lengthAdjust="spacingAndGlyphs" textLength="108" x="63" y="1362.4947">发单播响应给查询方</text><polygon fill="#FEFECE" filter="url(#f7enbadspe1vu)" points="58,1290.1756,176,1290.1756,188,1302.1756,176,1314.1756,58,1314.1756,46,1302.1756,58,1290.1756" style="stroke: #A80036; stroke-width: 1.5;"/><text fill="#000000" font-family="sans-serif" font-size="11" lengthAdjust="spacingAndGlyphs" textLength="17" x="121" y="1325.9345">yes</text><text fill="#000000" font-family="sans-serif" font-size="11" lengthAdjust="spacingAndGlyphs" textLength="118" x="58" y="1306.4436">QU 或源端口不是 5353?</text><polygon fill="#FEFECE" filter="url(#f7enbadspe1vu)" points="117,1396.0107,129,1408.0107,117,1420.0107,105,1408.0107,117,1396.0107" style="stroke: #A80036; stroke-width: 1.5;"/><polygon fill="#FEFECE" filter="url(#f7enbadspe1vu)" points="58,1124.3153,176,1124.3153,188,1136.3153,176,1148.3153,58,1148.3153,46,1136.3153,58,1124.3153" style="stroke: #A80036; stroke-width: 1.5;"/><text fill="#000000" font-family="sans-serif" font-size="11" lengthAdjust="spacingAndGlyphs" textLength="17" x="121" y="1160.0742">yes</text><text fill="#000000" font-family="sans-serif" font-size="11" lengthAdjust="spacingAndGlyphs" textLength="118" x="58" y="1140.5833">命中 _airplay 或 _raop?</text><polygon fill="#FEFECE" filter="url(#f7enbadspe1vu)" points="117,1440.0107,129,1452.0107,117,1464.0107,105,1452.0107,117,1440.0107" style="stroke: #A80036; stroke-width: 1.5;"/><polygon fill="#FEFECE" filter="url(#f7enbadspe1vu)" points="117,967.6271,129,979.6271,117,991.6271,105,979.6271,117,967.6271" style="stroke: #A80036; stroke-width: 1.5;"/><polygon fill="#FEFECE" filter="url(#f7enbadspe1vu)" points="76,1484.0107,158,1484.0107,170,1496.0107,158,1508.0107,76,1508.0107,64,1496.0107,76,1484.0107" style="stroke: #A80036; stroke-width: 1.5;"/><text fill="#000000" font-family="sans-serif" font-size="11" lengthAdjust="spacingAndGlyphs" textLength="82" x="76" y="1500.2786">UxPlay running</text><rect fill="#FEFECE" filter="url(#f7enbadspe1vu)" height="36.3441" rx="12.5" ry="12.5" style="stroke: #A80036; stroke-width: 1.5;" width="205" x="14.5" y="1528.0107"/><text fill="#000000" font-family="sans-serif" font-size="12" lengthAdjust="spacingAndGlyphs" textLength="185" x="24.5" y="1550.8388">unregister 时发送 goodbye TTL=0</text><ellipse cx="117" cy="1595.3548" fill="#FFFFFF" filter="url(#f7enbadspe1vu)" rx="11" ry="11" style="stroke: #000000; stroke-width: 1.0;"/><ellipse cx="117" cy="1595.3548" fill="#000000" rx="6" ry="6" style="stroke: #7F7F7F; stroke-width: 1.0;"/><line style="stroke: #A80036; stroke-width: 1.5;" x1="117" x2="117" y1="54.5158" y2="74.5158"/><polygon fill="#A80036" points="113,64.5158,117,74.5158,121,64.5158,117,68.5158" style="stroke: #A80036; stroke-width: 1.0;"/><line style="stroke: #A80036; stroke-width: 1.5;" x1="117" x2="117" y1="110.86" y2="130.86"/><polygon fill="#A80036" points="113,120.86,117,130.86,121,120.86,117,124.86" style="stroke: #A80036; stroke-width: 1.0;"/><line style="stroke: #A80036; stroke-width: 1.5;" x1="117" x2="117" y1="167.2041" y2="187.2041"/><polygon fill="#A80036" points="113,177.2041,117,187.2041,121,177.2041,117,181.2041" style="stroke: #A80036; stroke-width: 1.0;"/><line style="stroke: #A80036; stroke-width: 1.5;" x1="117" x2="117" y1="223.5482" y2="243.5482"/><polygon fill="#A80036" points="113,233.5482,117,243.5482,121,233.5482,117,237.5482" style="stroke: #A80036; stroke-width: 1.0;"/><line style="stroke: #A80036; stroke-width: 1.5;" x1="117" x2="117" y1="385.7274" y2="405.7274"/><polygon fill="#A80036" points="113,395.7274,117,405.7274,121,395.7274,117,399.7274" style="stroke: #A80036; stroke-width: 1.0;"/><line style="stroke: #A80036; stroke-width: 1.5;" x1="117" x2="117" y1="442.0715" y2="477.0715"/><polygon fill="#A80036" points="113,467.0715,117,477.0715,121,467.0715,117,471.0715" style="stroke: #A80036; stroke-width: 1.0;"/><line style="stroke: #A80036; stroke-width: 1.5;" x1="117" x2="117" y1="513.4156" y2="533.4156"/><polygon fill="#A80036" points="113,523.4156,117,533.4156,121,523.4156,117,527.4156" style="stroke: #A80036; stroke-width: 1.0;"/><line style="stroke: #A80036; stroke-width: 1.5;" x1="117" x2="117" y1="323.8923" y2="349.3832"/><polygon fill="#A80036" points="113,339.3832,117,349.3832,121,339.3832,117,343.3832" style="stroke: #A80036; stroke-width: 1.0;"/><line style="stroke: #A80036; stroke-width: 1.5;" x1="159" x2="196.5" y1="311.8923" y2="311.8923"/><polygon fill="#A80036" points="192.5,449.5715,196.5,459.5715,200.5,449.5715,196.5,453.5715" style="stroke: #A80036; stroke-width: 1.5;"/><line style="stroke: #A80036; stroke-width: 1.5;" x1="196.5" x2="196.5" y1="311.8923" y2="601.7597"/><line style="stroke: #A80036; stroke-width: 1.5;" x1="196.5" x2="129" y1="601.7597" y2="601.7597"/><polygon fill="#A80036" points="139,597.7597,129,601.7597,139,605.7597,135,601.7597" style="stroke: #A80036; stroke-width: 1.0;"/><line style="stroke: #A80036; stroke-width: 1.5;" x1="117" x2="117" y1="569.7597" y2="589.7597"/><polygon fill="#A80036" points="113,579.7597,117,589.7597,121,579.7597,117,583.7597" style="stroke: #A80036; stroke-width: 1.0;"/><line style="stroke: #A80036; stroke-width: 1.5;" x1="117" x2="117" y1="279.8923" y2="299.8923"/><polygon fill="#A80036" points="113,289.8923,117,299.8923,121,289.8923,117,293.8923" style="stroke: #A80036; stroke-width: 1.0;"/><line style="stroke: #A80036; stroke-width: 1.5;" x1="117" x2="117" y1="719.5948" y2="739.5948"/><polygon fill="#A80036" points="113,729.5948,117,739.5948,121,729.5948,117,733.5948" style="stroke: #A80036; stroke-width: 1.0;"/><line style="stroke: #A80036; stroke-width: 1.5;" x1="117" x2="117" y1="775.9389" y2="810.9389"/><polygon fill="#A80036" points="113,800.9389,117,810.9389,121,800.9389,117,804.9389" style="stroke: #A80036; stroke-width: 1.0;"/><line style="stroke: #A80036; stroke-width: 1.5;" x1="117" x2="117" y1="847.283" y2="867.283"/><polygon fill="#A80036" points="113,857.283,117,867.283,121,857.283,117,861.283" style="stroke: #A80036; stroke-width: 1.0;"/><line style="stroke: #A80036; stroke-width: 1.5;" x1="117" x2="117" y1="657.7597" y2="683.2506"/><polygon fill="#A80036" points="113,673.2506,117,683.2506,121,673.2506,117,677.2506" style="stroke: #A80036; stroke-width: 1.0;"/><line style="stroke: #A80036; stroke-width: 1.5;" x1="162.5" x2="199" y1="645.7597" y2="645.7597"/><polygon fill="#A80036" points="195,783.4389,199,793.4389,203,783.4389,199,787.4389" style="stroke: #A80036; stroke-width: 1.5;"/><line style="stroke: #A80036; stroke-width: 1.5;" x1="199" x2="199" y1="645.7597" y2="935.6271"/><line style="stroke: #A80036; stroke-width: 1.5;" x1="199" x2="129" y1="935.6271" y2="935.6271"/><polygon fill="#A80036" points="139,931.6271,129,935.6271,139,939.6271,135,935.6271" style="stroke: #A80036; stroke-width: 1.0;"/><line style="stroke: #A80036; stroke-width: 1.5;" x1="117" x2="117" y1="903.6271" y2="923.6271"/><polygon fill="#A80036" points="113,913.6271,117,923.6271,121,913.6271,117,917.6271" style="stroke: #A80036; stroke-width: 1.0;"/><line style="stroke: #A80036; stroke-width: 1.5;" x1="117" x2="117" y1="613.7597" y2="633.7597"/><polygon fill="#A80036" points="113,623.7597,117,633.7597,121,623.7597,117,627.7597" style="stroke: #A80036; stroke-width: 1.0;"/><line style="stroke: #A80036; stroke-width: 1.5;" x1="117" x2="117" y1="1047.9712" y2="1067.9712"/><polygon fill="#A80036" points="113,1057.9712,117,1067.9712,121,1057.9712,117,1061.9712" style="stroke: #A80036; stroke-width: 1.0;"/><line style="stroke: #A80036; stroke-width: 1.5;" x1="117" x2="117" y1="1210.1504" y2="1230.1504"/><polygon fill="#A80036" points="113,1220.1504,117,1230.1504,121,1220.1504,117,1224.1504" style="stroke: #A80036; stroke-width: 1.0;"/><line style="stroke: #A80036; stroke-width: 1.5;" x1="117" x2="117" y1="1314.1756" y2="1339.6666"/><polygon fill="#A80036" points="113,1329.6666,117,1339.6666,121,1329.6666,117,1333.6666" style="stroke: #A80036; stroke-width: 1.0;"/><line style="stroke: #A80036; stroke-width: 1.5;" x1="188" x2="200" y1="1302.1756" y2="1302.1756"/><polygon fill="#A80036" points="196,1347.8386,200,1357.8386,204,1347.8386,200,1351.8386" style="stroke: #A80036; stroke-width: 1.5;"/><line style="stroke: #A80036; stroke-width: 1.5;" x1="200" x2="200" y1="1302.1756" y2="1408.0107"/><line style="stroke: #A80036; stroke-width: 1.5;" x1="200" x2="129" y1="1408.0107" y2="1408.0107"/><polygon fill="#A80036" points="139,1404.0107,129,1408.0107,139,1412.0107,135,1408.0107" style="stroke: #A80036; stroke-width: 1.0;"/><line style="stroke: #A80036; stroke-width: 1.5;" x1="117" x2="117" y1="1376.0107" y2="1396.0107"/><polygon fill="#A80036" points="113,1386.0107,117,1396.0107,121,1386.0107,117,1390.0107" style="stroke: #A80036; stroke-width: 1.0;"/><line style="stroke: #A80036; stroke-width: 1.5;" x1="117" x2="117" y1="1266.4945" y2="1290.1756"/><polygon fill="#A80036" points="113,1280.1756,117,1290.1756,121,1280.1756,117,1284.1756" style="stroke: #A80036; stroke-width: 1.0;"/><line style="stroke: #A80036; stroke-width: 1.5;" x1="117" x2="117" y1="1148.3153" y2="1173.8063"/><polygon fill="#A80036" points="113,1163.8063,117,1173.8063,121,1163.8063,117,1167.8063" style="stroke: #A80036; stroke-width: 1.0;"/><line style="stroke: #A80036; stroke-width: 1.5;" x1="188" x2="213" y1="1136.3153" y2="1136.3153"/><polygon fill="#A80036" points="209,1276.4945,213,1286.4945,217,1276.4945,213,1280.4945" style="stroke: #A80036; stroke-width: 1.5;"/><line style="stroke: #A80036; stroke-width: 1.5;" x1="213" x2="213" y1="1136.3153" y2="1452.0107"/><line style="stroke: #A80036; stroke-width: 1.5;" x1="213" x2="129" y1="1452.0107" y2="1452.0107"/><polygon fill="#A80036" points="139,1448.0107,129,1452.0107,139,1456.0107,135,1452.0107" style="stroke: #A80036; stroke-width: 1.0;"/><line style="stroke: #A80036; stroke-width: 1.5;" x1="117" x2="117" y1="1420.0107" y2="1440.0107"/><polygon fill="#A80036" points="113,1430.0107,117,1440.0107,121,1430.0107,117,1434.0107" style="stroke: #A80036; stroke-width: 1.0;"/><line style="stroke: #A80036; stroke-width: 1.5;" x1="117" x2="117" y1="1104.3153" y2="1124.3153"/><polygon fill="#A80036" points="113,1114.3153,117,1124.3153,121,1114.3153,117,1118.3153" style="stroke: #A80036; stroke-width: 1.0;"/><line style="stroke: #A80036; stroke-width: 1.5;" x1="117" x2="117" y1="991.6271" y2="1011.6271"/><polygon fill="#A80036" points="113,1001.6271,117,1011.6271,121,1001.6271,117,1005.6271" style="stroke: #A80036; stroke-width: 1.0;"/><line style="stroke: #A80036; stroke-width: 1.5;" x1="170" x2="237" y1="1496.0107" y2="1496.0107"/><polygon fill="#A80036" points="233,1236.4693,237,1226.4693,241,1236.4693,237,1232.4693" style="stroke: #A80036; stroke-width: 1.5;"/><line style="stroke: #A80036; stroke-width: 1.5;" x1="237" x2="237" y1="979.6271" y2="1496.0107"/><line style="stroke: #A80036; stroke-width: 1.5;" x1="237" x2="129" y1="979.6271" y2="979.6271"/><polygon fill="#A80036" points="139,975.6271,129,979.6271,139,983.6271,135,979.6271" style="stroke: #A80036; stroke-width: 1.0;"/><line style="stroke: #A80036; stroke-width: 1.5;" x1="117" x2="117" y1="1464.0107" y2="1484.0107"/><polygon fill="#A80036" points="113,1474.0107,117,1484.0107,121,1474.0107,117,1478.0107" style="stroke: #A80036; stroke-width: 1.0;"/><line style="stroke: #A80036; stroke-width: 1.5;" x1="117" x2="117" y1="947.6271" y2="967.6271"/><polygon fill="#A80036" points="113,957.6271,117,967.6271,121,957.6271,117,961.6271" style="stroke: #A80036; stroke-width: 1.0;"/><line style="stroke: #A80036; stroke-width: 1.5;" x1="117" x2="117" y1="1508.0107" y2="1528.0107"/><polygon fill="#A80036" points="113,1518.0107,117,1528.0107,121,1518.0107,117,1522.0107" style="stroke: #A80036; stroke-width: 1.0;"/><line style="stroke: #A80036; stroke-width: 1.5;" x1="117" x2="117" y1="1564.3548" y2="1584.3548"/><polygon fill="#A80036" points="113,1574.3548,117,1584.3548,121,1574.3548,117,1578.3548" style="stroke: #A80036; stroke-width: 1.0;"/></g></svg>