<?xml version="1.0" encoding="UTF-8" standalone="no"?><svg xmlns="http://www.w3.org/2000/svg" xmlns:xlink="http://www.w3.org/1999/xlink" contentScriptType="application/ecmascript" contentStyleType="text/css" height="536px" preserveAspectRatio="none" style="width:579px;height:536px;" version="1.1" viewBox="0 0 579 536" width="579px" zoomAndPan="magnify"><defs><filter height="300%" id="f1tt2lz6wavf2o" width="300%" x="-1" y="-1"><feGaussianBlur result="blurOut" stdDeviation="2.0"/><feColorMatrix in="blurOut" result="blurOut2" type="matrix" values="0 0 0 0 0 0 0 0 0 0 0 0 0 0 0 0 0 0 .4 0"/><feOffset dx="4.0" dy="4.0" in="blurOut2" result="blurOut3"/><feBlend in="SourceGraphic" in2="blurOut3" mode="normal"/></filter></defs><g><text fill="#000000" font-family="sans-serif" font-size="18" lengthAdjust="spacingAndGlyphs" textLength="301" x="142.5" y="19.2419">UxPlay mDNS implementation split</text><polygon fill="#FFFFFF" filter="url(#f1tt2lz6wavf2o)" points="388,48.5158,481,48.5158,488,73.5838,512,73.5838,512,141.5158,388,141.5158,388,48.5158" style="stroke: #000000; stroke-width: 1.5;"/><line style="stroke: #000000; stroke-width: 1.5;" x1="388" x2="488" y1="73.5838" y2="73.5838"/><text fill="#000000" font-family="sans-serif" font-size="14" font-weight="bold" lengthAdjust="spacingAndGlyphs" textLength="87" x="392" y="65.4818">UxPlay main</text><polygon fill="#FFFFFF" filter="url(#f1tt2lz6wavf2o)" points="206,48.5158,354,48.5158,361,73.5838,364,73.5838,364,285.5158,206,285.5158,206,48.5158" style="stroke: #000000; stroke-width: 1.5;"/><line style="stroke: #000000; stroke-width: 1.5;" x1="206" x2="361" y1="73.5838" y2="73.5838"/><text fill="#000000" font-family="sans-serif" font-size="14" font-weight="bold" lengthAdjust="spacingAndGlyphs" textLength="142" x="210" y="65.4818">DNS-SD service layer</text><polygon fill="#FFFFFF" filter="url(#f1tt2lz6wavf2o)" points="22,192.5158,172,192.5158,179,217.5838,182,217.5838,182,405.5158,22,405.5158,22,192.5158" style="stroke: #000000; stroke-width: 1.5;"/><line style="stroke: #000000; stroke-width: 1.5;" x1="22" x2="179" y1="217.5838" y2="217.5838"/><text fill="#000000" font-family="sans-serif" font-size="14" font-weight="bold" lengthAdjust="spacingAndGlyphs" textLength="144" x="26" y="209.4818">mDNS protocol layer</text><rect fill="#FEFECE" filter="url(#f1tt2lz6wavf2o)" height="39.0679" style="stroke: #000000; stroke-width: 1.5;" width="93" x="403.5" y="86.5158"/><text fill="#000000" font-family="sans-serif" font-size="14" lengthAdjust="spacingAndGlyphs" textLength="73" x="413.5" y="111.4818">uxplay.cpp</text><rect fill="#FEFECE" filter="url(#f1tt2lz6wavf2o)" height="39.0679" style="stroke: #000000; stroke-width: 1.5;" width="94" x="238" y="230.5158"/><text fill="#000000" font-family="sans-serif" font-size="14" lengthAdjust="spacingAndGlyphs" textLength="74" x="248" y="255.4818">lib/dnssd.c</text><rect fill="#FEFECE" filter="url(#f1tt2lz6wavf2o)" height="39.0679" style="stroke: #000000; stroke-width: 1.5;" width="96" x="237" y="86.5158"/><text fill="#000000" font-family="sans-serif" font-size="14" lengthAdjust="spacingAndGlyphs" textLength="76" x="247" y="111.4818">lib/dnssd.h</text><rect fill="#FEFECE" filter="url(#f1tt2lz6wavf2o)" height="39.0679" style="stroke: #000000; stroke-width: 1.5;" width="100" x="66" y="350.5158"/><text fill="#000000" font-family="sans-serif" font-size="14" lengthAdjust="spacingAndGlyphs" textLength="80" x="76" y="375.4818">lib/mdnsd.c</text><rect fill="#FEFECE" filter="url(#f1tt2lz6wavf2o)" height="39.0679" style="stroke: #000000; stroke-width: 1.5;" width="102" x="64" y="230.5158"/><text fill="#000000" font-family="sans-serif" font-size="14" lengthAdjust="spacingAndGlyphs" textLength="82" x="74" y="255.4818">lib/mdnsd.h</text><path d="M77.5653,478.7639 C81.2677,471.5724 87.402,472.2948 91.6042,478.2294 C94.8324,472.0767 100.5037,473.5433 103.569,478.4063 C108.0561,472.3008 112.8442,471.9259 116.8661,478.8799 C121.336,471.9267 127.1104,473.1252 131.1853,479.3104 C134.3892,473.4491 139.9373,472.3967 143.7985,478.6247 C148.8551,472.8328 152.7663,473.6469 155.8149,480.5286 C165.2209,482.6555 168.0735,487.4879 164.1831,496.5568 C169.1116,505.3565 165.844,510.9408 156.0298,511.9129 C153.04,519.8193 148.7796,520.4348 142.7833,514.8689 C138.8538,521.5776 134.2787,520.9846 129.4604,515.8705 C127.0305,522.6446 121.4541,522.3071 117.2987,517.7171 C112.6354,523.4817 106.6965,524.0576 103.26,516.431 C98.2669,521.7653 93.4023,521.8632 90.6296,514.2628 C85.3088,519.4303 81.5828,517.9682 78.8715,511.6024 C69.1168,510.3555 67.0888,503.8286 71.6194,495.9592 C65.3299,488.5791 67.1442,480.3656 77.5653,478.7639 " fill="#FEFECE" style="stroke: #000000; stroke-width: 1.5;"/><text fill="#000000" font-family="sans-serif" font-size="14" lengthAdjust="spacingAndGlyphs" textLength="64" x="84" y="500.4818">UDP 5353</text><path d="M428.43,125.5758 C398.04,151.7358 342.74,199.3258 310.4,227.1558 " fill="none" id="UxPlay-&gt;Dnssd" style="stroke: #A80036; stroke-width: 1.0;"/><polygon fill="#A80036" points="306.58,230.4458,316.0104,227.6053,310.3692,227.1837,310.7909,221.5426,306.58,230.4458" style="stroke: #A80036; stroke-width: 1.0;"/><text fill="#000000" font-family="sans-serif" font-size="13" lengthAdjust="spacingAndGlyphs" textLength="179" x="388" y="172.4129">dnssd_init/register/unregister</text><path d="M258.22,269.7158 C227.94,290.8558 178.7,325.2358 146.84,347.4858 " fill="none" id="Dnssd-&gt;Mdnsd" style="stroke: #A80036; stroke-width: 1.0;"/><polygon fill="#A80036" points="142.65,350.4058,152.3209,348.542,146.7522,347.5472,147.747,341.9785,142.65,350.4058" style="stroke: #A80036; stroke-width: 1.0;"/><text fill="#000000" font-family="sans-serif" font-size="13" lengthAdjust="spacingAndGlyphs" textLength="109" x="212" y="316.4129">mdnsd service API</text><path d="M116,389.6958 C116,409.6858 116,441.6658 116,464.9558 " fill="none" id="Mdnsd-&gt;UDP" style="stroke: #A80036; stroke-width: 1.0;"/><polygon fill="#A80036" points="116,470.0858,120,461.0858,116,465.0858,112,461.0858,116,470.0858" style="stroke: #A80036; stroke-width: 1.0;"/><text fill="#000000" font-family="sans-serif" font-size="13" lengthAdjust="spacingAndGlyphs" textLength="119" x="117" y="436.4129">socket multicast I/O</text><path d="M285,125.5758 C285,151.1958 285,197.3958 285,225.4358 " fill="none" id="DnssdH-&gt;Dnssd" style="stroke: #A80036; stroke-width: 1.0; stroke-dasharray: 7.0,7.0;"/><polygon fill="#A80036" points="285,230.4458,289,221.4458,285,225.4458,281,221.4458,285,230.4458" style="stroke: #A80036; stroke-width: 1.0;"/><path d="M115.16,269.7158 C115.33,290.1658 115.61,323.0058 115.8,345.2658 " fill="none" id="MdnsdH-&gt;Mdnsd" style="stroke: #A80036; stroke-width: 1.0; stroke-dasharray: 7.0,7.0;"/><polygon fill="#A80036" points="115.84,350.4058,119.7627,341.3719,115.7971,345.406,111.763,341.4405,115.84,350.4058" style="stroke: #A80036; stroke-width: 1.0;"/></g></svg>